<?xml version="1.0" standalone="no"?><!DOCTYPE svg PUBLIC "-//W3C//DTD SVG 1.1//EN" "http://www.w3.org/Graphics/SVG/1.1/DTD/svg11.dtd"><svg t="1591164917895" class="icon" viewBox="0 0 1024 1024" version="1.1" xmlns="http://www.w3.org/2000/svg" p-id="3731" data-spm-anchor-id="a313x.7781069.0.i13" xmlns:xlink="http://www.w3.org/1999/xlink" width="200" height="200"><defs><style type="text/css"></style></defs><path d="M192 384h640a42.666667 42.666667 0 0 1 42.666667 42.666667v362.666666a42.666667 42.666667 0 0 1-42.666667 42.666667H192v106.666667a21.333333 21.333333 0 0 0 21.333333 21.333333h725.333334a21.333333 21.333333 0 0 0 21.333333-21.333333V308.821333L949.909333 298.666667h-126.528A98.048 98.048 0 0 1 725.333333 200.618667V72.661333L716.714667 64H213.333333a21.333333 21.333333 0 0 0-21.333333 21.333333v298.666667zM128 832H42.666667a42.666667 42.666667 0 0 1-42.666667-42.666667V426.666667a42.666667 42.666667 0 0 1 42.666667-42.666667h85.333333V85.333333a85.333333 85.333333 0 0 1 85.333333-85.333333h530.026667L1024 282.453333V938.666667a85.333333 85.333333 0 0 1-85.333333 85.333333H213.333333a85.333333 85.333333 0 0 1-85.333333-85.333333v-106.666667zM65.92 472.490667V746.666667h91.349333c40.597333 0 71.04-12.288 92.053334-36.864 19.946667-23.424 30.101333-56.832 30.101333-100.224 0-43.776-10.154667-77.184-30.101333-100.224-20.992-24.576-51.456-36.864-92.053334-36.864H65.92z m40.96 38.4H149.546667c31.146667 0 53.909333 7.68 68.266666 23.424 13.994667 15.36 20.992 40.704 20.992 75.264 0 33.792-6.997333 58.752-21.013333 74.88-14.336 15.744-37.098667 23.808-68.245333 23.808H106.88v-197.376z m322.005333-43.776c-38.506667 0-68.608 13.44-90.304 41.088-21.013333 26.112-31.146667 59.904-31.146666 101.76 0 41.472 10.133333 75.264 31.146666 101.376 21.696 26.88 51.797333 40.704 90.304 40.704 38.144 0 68.245333-13.44 90.304-40.32 20.992-25.728 31.488-59.52 31.488-101.76 0-42.24-10.496-76.416-31.488-102.144-22.058667-27.264-52.16-40.704-90.304-40.704z m0 39.552c25.898667 0 45.845333 8.832 59.84 27.264 13.653333 18.432 20.650667 43.776 20.650667 76.032s-6.997333 57.216-20.650667 75.264c-13.994667 18.048-33.941333 27.264-59.84 27.264-25.898667 0-46.208-9.6-60.202666-28.416-13.653333-18.432-20.309333-43.008-20.309334-74.112 0-31.488 6.656-56.064 20.309334-74.496 14.336-19.2 34.304-28.8 60.202666-28.8z m268.8-39.552c-39.893333 0-70.357333 14.208-91.349333 43.392-18.56 25.344-27.648 58.752-27.648 99.456 0 41.472 8.746667 74.496 26.602667 99.072 20.288 28.416 51.434667 43.008 93.098666 43.008 26.944 0 50.048-8.448 69.290667-25.344 20.650667-18.048 33.6-43.008 39.210667-75.264h-39.893334c-4.906667 20.736-13.312 36.48-25.216 46.848-11.2 9.216-25.898667 14.208-43.733333 14.208-27.306667 0-47.616-9.6-60.565333-28.032-11.904-17.28-17.856-42.24-17.856-74.496 0-31.488 5.973333-56.064 18.218666-73.728 13.290667-19.968 32.896-29.568 59.136-29.568 17.493333 0 31.850667 3.84 43.050667 12.288 11.562667 8.448 19.264 21.504 23.466667 39.552h39.893333c-3.84-27.648-14.72-49.92-32.896-66.048-18.901333-16.896-43.413333-25.344-72.810667-25.344z" fill="#3878DE" p-id="3732" data-spm-anchor-id="a313x.7781069.0.i14" class="selected"></path></svg>