<svg class="icon" viewBox="0 0 1024 1024" xmlns="http://www.w3.org/2000/svg" width="200" height="200"><defs><style/></defs><path d="M73.144 71.68h292.567C446.505 71.68 512 137.39 512 218.45v660.48c0 40.53-32.748 73.39-73.144 73.39H73.144C32.748 952.32 0 919.46 0 878.93V145.07c0-40.53 32.748-73.39 73.144-73.39z" fill="#CF5A1A"/><path d="M0 184.32h950.856A73.144 73.144 0 011024 257.464v621.712a73.144 73.144 0 01-73.144 73.144H73.144A73.144 73.144 0 010 879.176V184.32z" fill="#FF7A45"/><path d="M269.763 617.81a54.671 54.671 0 0154.712 54.62 54.671 54.671 0 01-54.702 54.61 54.671 54.671 0 01-54.733-54.61 54.671 54.671 0 0154.723-54.62zm492.472 18.207a36.444 36.444 0 0136.485 36.413 36.444 36.444 0 01-36.485 36.403h-291.84a36.444 36.444 0 01-36.475-36.403 36.444 36.444 0 0136.485-36.413h291.84zM269.763 399.36a54.671 54.671 0 0154.712 54.61 54.671 54.671 0 01-54.712 54.62 54.671 54.671 0 01-54.723-54.62 54.671 54.671 0 0154.723-54.61zm492.472 18.207a36.444 36.444 0 0136.485 36.403 36.444 36.444 0 01-36.485 36.413h-291.84a36.444 36.444 0 01-36.475-36.413 36.444 36.444 0 0136.485-36.403h291.84z" fill="#FFBB96"/></svg>