<svg viewBox="0 0 500 500" xmlns="http://www.w3.org/2000/svg" fill-rule="evenodd" clip-rule="evenodd" stroke-linejoin="round" stroke-miterlimit="2"><path d="M275.409 172.896c-29.033 15.302-24.081-3.735-58.483 30.572-8.076 8.055-13.737 23.256-13.509 35.938.231 12.848 8.549 36.731 14.896 41.146 11.735 8.165 48.717-12.381 51.963-5.52 7.78 16.445-54.062 55.492-71.8 47.292-23.133-10.695-21.972-42.268-20.75-64.164.384-6.887-21.787 13.967-7.834 92.01 2.45 13.704 7.778 26.513 16.486 35.488 18.614 19.184 34.138 19.669 74.07 13.529 13.879-2.134 23.821-9.391 30.671-20.351 7.355-11.768 11.353-25.865 13.071-35.538 6.642-37.4-8.341-78.506-23.036-105.15-13.278-24.076-10.432-48.177-5.745-65.252z" fill="#fff"/><path d="M174.567 418.169c-11.338 3.385-23.56 4.307-29.481-.932-4.237-3.749 5.253-12.415 5.705-27.084.93-30.138-6.855-47.449-4.855-95.603 1.067-25.682 5.871-51.575 15.031-75.836 9.359-24.789 29.203-54.155 41.125-72.895 8.87-13.943 15.648-28.762 30.408-39.545 8.254-6.029 21.382-8.789 31.733-7.826 14.471 1.346 23.823 9.063 30.056 16.441 22.366 26.471 40.286 19.841 43.459 29.826 1.292 4.064-23.794 6.613-32.268 9.86-6.998 2.681-12.057 5.726-16.176 8.627-5.344 14.298-14.557 42.074.743 69.816 4.016 7.28 11.317 23.386 15.433 24.324 17.159 3.913 16.756-25.07 24.31-22.746 8.047 2.476 3.79 50.768-17.955 55.027 4.12 18.101 5.65 37.246 2.401 55.541-2.291 12.902-8.349 32.839-19.992 46.939a57.422 57.422 0 01-6.237 6.486c1.86-.088 3.947-.06 6.377.118 14.339 1.051 31.596 9.238 31.584 15.993-.013 6.755-20.662 12.772-32.51 9.51-12.063-3.32-16.64-10.714-43.985-9.282-27.344 1.432-35.659 13.408-48.088 14.69-11.089 1.143-27.342-.207-28.029-6.926-.133-1.298.299-2.852 1.211-4.523zm100.842-245.273c-29.033 15.302-24.081-3.735-58.483 30.572-8.076 8.055-13.737 23.256-13.509 35.938.231 12.848 8.549 36.731 14.896 41.146 11.735 8.165 48.717-12.381 51.963-5.52 7.78 16.445-54.062 55.492-71.8 47.292-23.133-10.695-21.972-42.268-20.75-64.164.384-6.887-21.787 13.967-7.834 92.01 2.45 13.704 7.778 26.513 16.486 35.488 18.614 19.184 34.138 19.669 74.07 13.529 13.879-2.134 23.821-9.391 30.671-20.351 7.355-11.768 11.353-25.865 13.071-35.538 6.642-37.4-8.341-78.506-23.036-105.15-13.278-24.076-10.432-48.177-5.745-65.252z"/><path d="M193.859 92.145c8.725-15.432 27.587-29.333 50.783-30.052 1.815-.056 17.833 10.636 17.833 10.636 11.394 3.194 21.373 9.488 27.759 19.118 3.555 5.421 9.404 8.81 15.779 9.141 3.18.071 5.305.827 7.007 2.349 3.14 2.809-1.274 6.134-6.765 8.372-11.208 4.57-34.791 7.556-58.656 16.687-36.707 14.044-55.992 22.552-58.63 20.325-1.689-1.426-7.116-10.176-4.375-15.019a15.72 15.72 0 001.94-9.149c-1.231-12.698 1.299-23.679 7.325-32.408z" fill="#f9c100"/><path d="M386.188 192.911c-10.257-19.749-22.155-37.011-30.746-49.047-4.513-6.322 1.077-13.267 13.694-20.02 12.618-6.753 21.369-11.667 27.131-5.35 16.2 17.761 47.906 72.018 43.307 125.573-2.478 28.856-17.182 57.671-30.446 78.37-1.067 1.698-3.243 2.558-5.098 2.016-1.855-.543-2.821-2.322-2.264-4.17 4.708-16.2 8.102-38.155 5.15-65.226-1.428-13.098-5.139-26.256-10.09-38.893L180.452 331.966c-1.973 1.056-2.833 3.293-1.921 4.997l.001.002c.926 1.73.098 3.997-1.871 5.128-16.126 9.287-82.81 47.448-100.363 53.564-7.579 2.641-11.035-4.141-16.183-13.761-5.149-9.62-8.875-16.257-2.473-21.098 14.825-11.213 83.566-45.53 100.239-53.796 2.032-1.011 4.378-.442 5.303 1.287l.002.002c.912 1.704 3.251 2.229 5.224 1.173l217.778-116.553z" fill="#0085a7"/><path d="M198.472 322.322c-8.844-4.091-14.137-11.234-17.234-19.724l39.18-20.968c13.512 4.955 46.787-13.09 49.858-6.598 1.267 2.677.688 5.954-1.246 9.528l-70.558 37.762z"/></svg>