<svg class="icon" viewBox="0 0 1024 1024" xmlns="http://www.w3.org/2000/svg" width="200" height="200"><defs><style/></defs><path d="M511.787 0C466.219 111.744 438.74 184.832 388.01 293.248c31.104 32.981 69.29 71.381 131.285 114.773-66.645-27.434-112.128-54.997-146.133-83.584C308.224 459.947 206.507 652.971 0 1024c162.304-93.696 288.085-151.467 405.333-173.483a297.13 297.13 0 01-7.68-69.546l.171-5.163c2.56-103.979 56.661-183.936 120.747-178.517 64.042 5.418 113.834 94.165 111.274 198.144-.469 19.584-2.688 38.4-6.528 55.85C739.243 873.984 863.701 931.584 1023.83 1024c-31.573-58.112-59.733-110.507-86.656-160.427-42.41-32.853-86.613-75.562-176.768-121.856 61.952 16.086 106.368 34.688 140.928 55.467C627.755 287.829 605.653 220.16 511.787 0z" fill="#1296db"/></svg>