<svg class="icon" viewBox="0 0 1024 1024" xmlns="http://www.w3.org/2000/svg" width="200" height="200"><defs><style/></defs><path d="M827.7 438.272c1.023 27.648-8.065 40.96-16.282 64.82l-14.797 7.346c-12.083 23.476 1.203 14.9-7.45 33.588-18.893 16.768-57.267 52.48-69.53 55.756-8.985-.204 6.068-10.598 8.039-14.643-25.267 17.331-20.275 26.01-58.88 36.583l-1.126-2.56c-95.258 44.825-227.61-44.007-225.87-165.172-.998 7.68-2.892 5.76-4.991 8.832-4.915-62.31 28.8-124.902 85.657-150.502 55.604-27.52 120.807-16.23 160.64 20.915-21.81-28.595-65.33-59.085-117.043-56.269-50.56.845-97.869 32.948-113.638 67.84-25.907 16.308-28.928 62.874-40.192 71.399C397.03 527.82 440.78 576.025 514.816 632.78c11.622 7.833 3.277 9.037 4.838 15.001a200.422 200.422 0 01-65.715-50.176c9.83 14.388 20.48 28.365 34.15 39.348-23.193-7.834-54.195-56.192-63.206-58.164 39.962 71.68 162.15 125.44 226.15 98.74-29.619 1.1-67.225.614-100.48-11.674-14.003-7.194-32.998-22.093-29.593-24.858 87.322 32.615 177.536 24.679 253.082-35.84 19.225-14.976 40.217-40.448 46.31-40.78-9.14 13.747 1.562 6.604-5.453 18.739 19.098-30.9-8.345-12.57 19.763-53.35l10.394 14.31c-3.891-25.6 31.846-56.807 28.16-97.28 8.192-12.39 9.14 13.363.46 41.881 12.058-31.641 3.175-36.736 6.273-62.848 3.328 8.781 7.68 18.1 10.01 27.367-7.885-30.592 8.038-51.482 11.98-69.274-3.891-1.715-12.134 13.517-14.029-22.605.282-15.692 4.378-8.217 5.965-12.083-3.072-1.766-11.161-13.798-16.077-36.864 3.533-5.453 9.524 14.055 14.362 14.848-3.123-18.355-8.474-32.333-8.704-46.413-14.182-29.619-5.12 3.968-16.512-12.8-15.078-47.052 12.518-10.905 14.387-32.281 22.861 33.1 35.84 84.48 41.882 105.728a432.64 432.64 0 00-20.967-75.367c6.964 2.944-11.187-53.324 9.037-16.05-21.606-79.36-92.365-153.6-157.517-188.468 7.962 7.27 17.92 16.435 14.413 17.92-32.41-19.277-26.7-20.787-31.36-28.928-26.342-10.752-28.16.87-45.568 0-49.613-26.496-59.187-23.68-104.985-40.192l2.099 9.728c-32.947-10.957-38.4 4.147-74.01 0-2.15-1.664 11.418-6.118 22.605-7.68-31.872 4.198-30.387-6.298-61.44 1.152 7.68-5.376 15.795-8.96 23.987-13.542-25.958 1.587-62.029 15.13-50.893 2.79-42.47 18.893-117.734 45.44-159.974 85.043l-1.331-8.883c-19.354 23.245-84.48 69.376-89.6 99.482l-5.12 1.203c-10.01 17.075-16.615 36.377-24.602 53.913-13.158 22.426-19.302 8.653-17.433 12.186-25.908 52.506-38.784 96.614-49.895 132.838 7.91 11.828.205 71.27 3.175 118.836-12.98 234.956 164.89 463.052 359.347 515.712 28.493 10.24 70.86 9.856 106.931 10.854-42.522-12.16-48.026-6.451-89.472-20.89-29.875-14.08-36.429-30.156-57.6-48.64l8.371 14.823c-41.497-14.695-24.14-18.202-57.907-28.877l8.934-11.674c-13.44-1.05-35.635-22.681-41.702-34.688l-14.797.666c-17.69-21.786-27.11-37.53-26.419-49.74l-4.762 8.498c-5.401-9.267-65.1-81.92-34.124-64.972-5.735-5.248-13.39-8.55-21.684-23.63l6.375-7.116c-14.874-19.174-27.418-43.75-26.47-51.942 7.961 10.726 13.465 12.8 18.943 14.592-37.657-93.39-39.756-5.12-68.25-95.053l6.017-.487a198.246 198.246 0 01-11.136-21.939l2.56-26.137c-27.085-31.284-7.552-133.12-3.635-189.056 2.56-22.708 22.604-46.9 37.734-84.839l-9.216-1.561c17.69-30.823 100.787-123.597 139.187-118.836 18.637-23.398-3.712 0-7.347-5.964 40.96-42.343 53.76-29.927 81.408-37.556 29.773-17.664-25.6 6.912-11.443-6.732 51.507-13.133 36.48-29.85 103.782-36.557 7.091 4.019-16.435 6.22-22.349 11.443 42.906-20.992 135.68-16.205 196.096 11.648 69.965 32.717 148.608 129.382 151.732 220.34l3.532.946c-1.792 36.173 5.53 78.004-7.193 116.404l8.422-18.202" fill="#D70751"/></svg>