<svg class="icon" viewBox="0 0 1024 1024" xmlns="http://www.w3.org/2000/svg" width="200" height="200"><defs><style/></defs><path d="M687.073 29.713C613.51 2.835 538.185-4.429 465.004 2.42c-84.828 6.687-126.202 32.926-123.738 28.19C202.553 80.111 85.28 186.634 31.01 335.971c-96.667 265.97 40.286 560.1 305.81 656.96 265.715 96.86 559.364-40.318 656.096-306.29 96.73-265.938-40.222-560.068-305.874-656.896zM354.322 944.837a455.338 455.338 0 01-81.628-39.71l1.983 1.12c123.738 9.504 285.267-18.975 394.19-120.922 0 0 207.605-165.88 57.373-438.123 0 0 24.222 109.723-6.656 199.958 0 0-29.439 122.746-160.28 158.36-192.727 52.51-412.3-82.331-504.136-147.736-6.912-67.165-.768-136.538 23.903-204.278 36.478-100.347 105.083-178.68 188.887-231.253-20.895 146.585-4.352 281.586 19.455 338.128 31.966 75.804 87.452 164.248 195.83 175.575 108.38 11.392 168.088-90.012 168.088-90.012 55.645-84.475 64.35-205.782 63.485-208.725-.864-2.976-14.815-10.976-14.815-10.976-37.406 151.417-99.1 201.974-99.1 201.974-97.275 93.916-166.167 28.799-166.167 28.799-74.077-79.58-22.175-208.854-22.175-208.854 29.022-88.06 113.498-216.917 209.27-282.45 15.967 3.936 31.998 6.4 47.773 12.127a458.858 458.858 0 01151.96 92.444l-.32-.288c-70.012 25.566-183.062 79.58-183.062 79.58-179.224 75.516-191.35 189.687-191.35 189.687-18.56 117.658 74.843 67.836 74.843 67.836 96.092-46.813 143.322-192.662 143.322-192.662-29.983-5.728-53.63 3.423-53.63 3.423C573 412.575 494.763 451.485 494.763 451.485c-30.815 16.287-37.982-12.511-37.982-12.511-5.216-21.6 22.27-25.247 22.27-25.247 42.654-16.607 69.917-61.405 76.125-79.708 6.144-18.335 17.567-19.807 17.567-19.807a530.086 530.086 0 01109.403-22.623l2.336-.192c72.54-8.928 183.575 25.695 183.575 25.695 24.926 10.015 48.797 17.503 70.012 23.518 40.702 101.723 47.134 217.494 6.816 328.528-87.004 239.349-351.375 362.83-590.531 275.7z" fill="#007CFF"/></svg>