<svg width="201" height="164" xmlns="http://www.w3.org/2000/svg"><path d="M5.887 1.675c-9.9.919-7.331 1.281 16.5 2.381C69.693 6.075 97.743 13.587 116.993 29c10.269 8.431 18.225 26.219 18.225 26.219s-30.325 6.968-64.975 13.75C35.587 75.75 8.074 81.8 9.187 82.169c2.931.918 43.45-4.032 85.994-10.632l40.58-6.118c.65-.1.3 3.281.3 4.281 0 9.169-9.35 24.569-23.28 38.325-22.92 22.369-55.194 39.05-96.444 49.681-11.369 2.931-18.331 5.319-15.769 5.319 9.9.369 47.85-10.819 65.081-18.881 22.375-10.632 36.675-20.9 54.094-38.869 12.331-15.35 24.95-23.3 25.469-41.806l25.5-4.219c13.575-2.2 25.856-4.581 27.331-5.131 2.006-.732 2.375-2.932 1.644-8.432-1.281-10.08-9.169-17.968-25.119-25.306-24.2-11.181-49-13.356-62.019-5.669-1.443.844-3.13 3.475-4.45 4.05 13.065 4.215 11.64 4.628 11.644 4.29.005-.312 1.956-1.197 1.528-1.618-1.092-1.075 4.255.283.667-1.053l-33.545-8.806C63.093 2.956 32.1-.706 5.887 1.675zm158.6 23.106c13.569 4.031 34.831 16.781 31.6 17.419l-25.55 5.006-28.219 6.431c-5.369-11.956-12.425-18.6-21.9-27.543l1.106-2.725c2.682-6.632 21.132-5.019 42.957 1.406l.006.006z" fill="#FC0000" fill-rule="nonzero"/></svg>