<svg class="icon" viewBox="0 0 1024 1024" xmlns="http://www.w3.org/2000/svg" width="200" height="200"><defs><style/></defs><path d="M512 56.889C260.608 56.889 56.889 260.665 56.889 512a455.111 455.111 0 10910.222 0A455.111 455.111 0 00512 56.889z" fill="#F76746"/><path d="M619.406 206.45a61.383 61.383 0 11106.212 61.44 61.383 61.383 0 01-106.212-61.44zm-415.46 362.61a61.383 61.383 0 110-122.767 61.383 61.383 0 010 122.767zm54.33 5.46c19.399-15.814 31.744-39.878 31.744-66.844s-12.345-50.972-31.744-66.787A267.207 267.207 0 01368.469 285.98l44.886 75.094a178.916 178.916 0 00-76.175 146.602c0 60.644 30.095 114.176 76.175 146.603l-44.886 75.15a267.378 267.378 0 01-110.193-154.908zm444.928 256.854a61.27 61.27 0 11-61.27-106.154 61.27 61.27 0 0161.27 106.154zm-.171-133.689a86.016 86.016 0 00-115.485 66.788 265.5 265.5 0 01-189.326-17.92l42.61-76.345a179.2 179.2 0 00253.952-146.66l87.381 1.309a265.444 265.444 0 01-79.132 172.828zm-8.249-205.88a179.2 179.2 0 00-253.952-146.603l-42.61-76.402a265.273 265.273 0 01189.326-17.863 85.902 85.902 0 00115.485 66.73 265.614 265.614 0 0179.132 172.829l-87.381 1.308z" fill="#FFF"/></svg>