<svg class="icon" viewBox="0 0 1024 1024" xmlns="http://www.w3.org/2000/svg" width="200" height="200"><defs><style/></defs><path d="M512.16 12.768c-194.88 0-352.856 157.976-352.856 352.856 0 194.848 157.976 352.84 352.856 352.84 194.872 0 352.848-157.992 352.848-352.84 0-194.88-157.976-352.856-352.848-352.856zm79.168 121.52a47.096 47.096 0 1181.592 47.04 47.096 47.096 0 01-81.592-47.04zm-79.168 26.68c18.944 0 37.264 2.624 54.672 7.432a65.952 65.952 0 0032.216 46.712 66.032 66.032 0 0056.48 4.576c34.832 34.256 57.504 80.84 60.816 132.736l-67.136.984c-6.192-70.288-65.168-125.4-137.048-125.4-20.712 0-40.352 4.6-57.968 12.8l-32.736-58.664a203.872 203.872 0 0190.704-21.176zm-239.936 251.76a47.12 47.12 0 11-.008-94.232 47.12 47.12 0 01.008 94.232zM314 416.92a66.088 66.088 0 0024.384-51.304A66.112 66.112 0 00314 314.296c12.744-49.304 43.408-91.4 84.624-118.96l34.44 57.688c-35.384 24.896-58.504 66.032-58.504 112.592 0 46.544 23.12 87.672 58.504 112.56l-34.44 57.704C357.392 508.336 326.72 466.24 314 416.92zm341.672 197.264a47.072 47.072 0 01-64.328-17.248 47.096 47.096 0 1164.328 17.248zm-.144-102.648a66.016 66.016 0 00-56.48 4.576 66.032 66.032 0 00-32.216 46.712 204.72 204.72 0 01-54.672 7.448c-32.568 0-63.352-7.656-90.696-21.192l32.736-58.656a137.104 137.104 0 0057.968 12.8c71.88 0 130.856-55.104 137.04-125.408l67.144.984c-3.312 51.896-25.984 98.48-60.824 132.736zM128 973.272c-8 .44-4.072.824-6.584 1.152-2.52.336-5.904.656-8.976.984-3.072.336-6.656.608-10.168.824-3.512.224-7.056.336-10.344.336-15.576 0-27.064-4.496-33.648-13.496-6.584-8.992-10.28-23.92-10.28-44.76V832H24v92.896c0 11.632-1.76 22.216.656 31.752 2.416 9.536 4.88 17.824 10.36 24.84C40.496 988.512 47 993.936 56 997.784c8.984 3.824 19.696 5.752 32.856 5.752 15.144 0 26.152-.984 37.664-2.96 11.512-1.968 17.472-3.84 25.472-5.592V832h-24v141.272zm203.008-123.408a68.04 68.04 0 00-24.184-18.424c-9.544-4.384-20.456-6.584-32.744-6.584-9.864 0-18.08 1.312-25.648 3.952-7.568 2.632-8.432 5.16-16.432 7.56v-91.8l-32 5.272v245.152c0 1.976 16.2 3.952 27.168 5.92 10.976 1.976 23.68 2.96 37.936 2.96 13.168 0 25.064-2.096 35.592-6.256 10.528-4.168 19.536-10.088 27-17.768 7.456-7.68 13.224-17.056 17.288-28.128 4.056-11.088 6.096-23.544 6.096-37.36 0-13.16-1.704-25.224-5.104-36.192-3.4-10.968-8.384-20.4-14.968-28.304zM304.36 960.592c-9.872 10.864-23.032 16.296-39.496 16.296-8.336 0-14.784-.384-20.384-1.152-5.592-.768-4.488-1.592-12.488-2.472V864.992c8-3.072 8.584-6.032 15.608-8.88 7.024-2.848 14.44-4.28 22.792-4.28 8.768 0 16.16 1.592 22.408 4.768a41.312 41.312 0 0115.24 13.168c3.944 5.592 6.76 12.232 8.52 19.912 1.76 7.688 2.616 15.912 2.616 24.68 0 19.976-4.952 35.376-14.816 46.232zM488 973.272c0 .44-1.288.824-3.808 1.152-2.52.336-4.504.656-7.576.984-3.072.336-5.96.608-9.464.824-3.504.224-6.704.336-9.992.336-15.584 0-25.672-4.496-32.256-13.496-6.584-8.992-8.904-23.92-8.904-44.76V832h-32v92.896c0 11.632 1.032 22.208 3.448 31.752 2.416 9.536 6.28 17.824 11.768 24.84 5.48 7.024 12.672 12.448 21.672 16.296 9 3.824 20.056 5.752 33.224 5.752 15.136 0 27.512-.984 39.032-2.96 11.512-1.968 18.856-3.84 26.856-5.592V832h-32v141.272zm201.52-126.2c-5.384-6.912-12.56-12.28-21.552-16.12-9-3.832-20.296-5.76-33.896-5.76-15.136 0-31.496.984-43.12 2.96-11.64 1.976-22.952 3.84-30.952 5.6V992h32V855.464l7.712-.984c2.512-.44 6.504-.824 9.688-1.16 3.176-.328 7.096-.608 10.608-.824a175.28 175.28 0 0110.488-.328c8.112 0 15.056 1.04 20.536 3.128 5.496 2.08 9.952 5.432 13.24 10.032 3.296 4.6 4.904 10.632 6.336 18.096C672.024 890.88 672 899.88 672 910.4V992h32v-88.168c0-11.624-1.016-22.264-3.208-31.928-2.2-9.64-5.904-17.92-11.272-24.832zm139.352 126.36c-5.48 2.08-12.944 3.128-22.376 3.128-5.264 0-9.872-.664-13.816-1.976a21.232 21.232 0 01-9.872-6.744c-2.632-3.184-8.064-7.56-9.376-13.168C772.112 949.08 768 942 768 933.456V856h72v-24h-72v-56.176l-24 5.272v152.68c0 11.416 1.08 21.448 2.944 30.112 1.864 8.672 5.176 15.96 9.784 21.888 4.608 5.92 10.728 10.36 18.304 13.32 7.568 2.968 17.184 4.448 28.824 4.448 9.872 0 18.704-1.208 26.496-3.624s13.216-4.376 16.296-5.92l-6.568-25.016c-1.992.88-5.728 2.36-11.208 4.448zM976 832v141.272c0 .44-3.096.824-5.608 1.152-2.52.336-5.424.656-8.488.984-3.072.336-6.408.608-9.912.824-3.512.224-6.936.336-10.224.336-15.576 0-27.984-4.496-34.56-13.496-6.584-8.992-11.2-23.912-11.2-44.76V832h-24v92.896c0 11.632-.784 22.208 1.64 31.752 2.408 9.536 5.36 17.824 10.848 24.84a52.112 52.112 0 0021.216 16.296c9 3.824 19.832 5.752 32.992 5.752 15.144 0 25.224-.984 36.744-2.96 11.512-1.968 16.4-3.84 24.56-5.592V832H976z" fill="#DD4814"/></svg>